# xmcd
#
# Track frame offsets: 
#        150
#        16676
#        33971
#        51405
#        76629
#        91361
#        114668
#
# Disc length: 1548 seconds
#
# Revision: 0
# Processed by: cddbd v1.5.2PL0 Copyright (c) Steve Scherf et al.
# Submitted via: ExactAudioCopy v0.95b4
#
DISCID=46060a07
DTITLE=Matraca Berg, Suzy Bogguss, Gretchen Peters - The Sewanee Sessi
DTITLE=ons
DYEAR=2009
DGENRE=Americana
TTITLE0=Hammer And Nail
TTITLE1=Tomorrow Morning
TTITLE2=Camille
TTITLE3=Wild Horses
TTITLE4=Heartache
TTITLE5=Farther Along
TTITLE6=Farther Along parody [hidden track]
EXTD=
EXTT0=
EXTT1=
EXTT2=
EXTT3=
EXTT4=
EXTT5=
EXTT6=
PLAYORDER=
